<?xml version="1.0" encoding="UTF-8" standalone="no"?><!DOCTYPE svg PUBLIC "-//W3C//DTD SVG 1.1//EN" "http://www.w3.org/Graphics/SVG/1.1/DTD/svg11.dtd"><svg width="100%" height="100%" viewBox="0 0 15459 15459" version="1.1" xmlns="http://www.w3.org/2000/svg" xmlns:xlink="http://www.w3.org/1999/xlink" xml:space="preserve" xmlns:serif="http://www.serif.com/" style="fill-rule:evenodd;clip-rule:evenodd;stroke-linejoin:round;stroke-miterlimit:2;"><g id="Background"></g><g id="Illustration"><g><path d="M13247.742,5229.429c312.188,-2843.421 -2444.488,-3831.275 -4398.758,-3103.242c-1970.125,733.942 -2426.867,-482.7 -5197.171,-135.083c-2805.075,351.979 -1380.892,4755.242 -1380.892,4755.242c0,0 446.329,3828.912 975.117,5593.825c525.921,1755.367 5560.125,1120.283 6784.771,1067.9c1217.6,-52.083 2275.625,48.446 3334.988,-1878.933c1057.421,-1923.862 -429.208,-3465.713 -118.054,-6299.708Z" style="fill:#fff;fill-rule:nonzero;"/><path d="M9052.938,4190.467l-215.808,14.558c-24.771,-96.296 -57.308,-189.321 -97.679,-278.004l179.038,-120.154c48.85,-32.783 61.4,-99.125 28.046,-148.2l-208.821,-307.237c-33.433,-49.183 -100.25,-62.562 -149.254,-29.854l-181.438,121.092c-68.904,-70.604 -143.754,-135.354 -223.825,-193.346l95.671,-196.446c25.8,-52.971 3.221,-117.304 -50.442,-143.704l-336.208,-165.438c-53.862,-26.504 -118.571,-5 -144.512,48.071l-96.342,197.075c-94.225,-27.417 -191.738,-46.629 -291.512,-57.717l-16.771,-221.008c-4.504,-59.333 -56.738,-104.567 -116.7,-101.029l-375.796,22.162c-60.221,3.554 -105.408,54.675 -100.892,114.179l16.821,221.662c-97.863,23.133 -192.413,54.129 -282.604,92.954l-126.746,-184.796c-34.175,-49.838 -102.567,-63.521 -152.771,-30.558l-314.521,206.55c-50.392,33.092 -63.421,100.404 -29.079,150.317l127.171,184.833c-72.229,68.246 -138.212,142.696 -197.354,222.367l-203.488,-98.3c-55.096,-26.617 -121.333,-4.596 -147.929,49.208l-166.488,336.846c-26.658,53.925 -3.462,119.158 51.788,145.671l201.996,96.95c-27.567,94.671 -46.446,192.704 -56.892,293.017l-223.654,15.088c-61.221,4.129 -107.196,56.137 -102.642,116.162l28.483,375.354c4.554,60.021 57.904,105.179 119.113,100.871l221.829,-15.613c25.012,98.438 58.267,193.396 99.55,283.879l-182.492,121.8c-50.671,33.817 -63.779,101.55 -29.254,151.254l215.613,310.512c34.438,49.596 103.312,62.304 153.817,28.408l181.062,-121.508c71.054,71.954 148.421,137.517 231.029,196.087l-94.633,193.579c-26.454,54.1 -3.392,118.929 51.467,144.762l342.433,161.275c54.662,25.742 120.271,2.808 146.571,-51.188l93.392,-191.767c96.621,26.758 196.529,44.808 298.567,54.433l16.083,211.975c4.517,59.508 56.95,103.904 117.079,99.163l375.229,-29.604c59.875,-4.725 104.737,-56.654 100.233,-115.988l-16.037,-211.35c98.708,-25.071 193.867,-58.058 284.333,-99.038l119.792,174.1c33.679,48.958 100.967,61.375 150.263,27.758l307.733,-209.825c49.117,-33.492 61.746,-100.25 28.221,-149.129l-120.129,-175.15c71.142,-69.413 136.087,-144.783 193.913,-225.371l192.017,92.163c53.433,25.646 117.533,3.246 143.196,-50.012l160.263,-332.679c25.6,-53.137 3.163,-117.067 -50.129,-142.813l-192.396,-92.946c26.2,-93.813 44.046,-190.817 53.483,-290.029l214.046,-15.067c58.896,-4.15 103.004,-55.2 98.537,-114.029l-27.917,-367.912c-4.458,-58.833 -55.813,-103.304 -114.721,-99.329Zm-1945.287,-661.092c604.812,-38.413 1129.158,414.413 1174.446,1011.217c45.287,596.796 -405.233,1116.842 -1009.55,1161.792c-607.971,45.225 -1140.654,-407.029 -1186.442,-1010.383c-45.788,-603.358 413.071,-1123.979 1021.546,-1162.625Z" style="fill:#4f9cf9;fill-opacity:0.3;fill-rule:nonzero;"/><g><g><path id="SVGID_1_" d="M8195.263,11467.8c-651.087,-876.496 -363.75,-2232.092 151.796,-2463.033c268.146,-120.121 487.063,113.725 747.675,-49.046c288.746,-180.342 162.742,-556.538 404.775,-1223.683c125.054,-344.7 351.829,-969.771 790.992,-1081.075c435.517,-110.375 645.696,394.562 1120.846,301.708c449.288,-87.8 432.112,-572.638 1028.133,-833.979c55.442,-24.308 682.567,-290.283 1030.254,-1.463c353.238,293.425 293.288,1055.846 -53.754,1441.854c-315.296,350.696 -774.9,287.629 -822.575,535.621c-52.533,273.287 488.392,439.396 461.379,725.321c-39.042,413.287 -1197.7,367.733 -1409.404,975.25c-124.487,357.242 220.35,533.133 162.508,1014.471c-74.65,621.238 -740.708,1090.979 -1250.733,1271.7c-739.137,261.904 -1797.554,146.062 -2361.892,-613.646Z" style="fill:#4f9cf9;fill-opacity:0.57;fill-rule:nonzero;"/><g><clipPath id="_clip1"><path d="M8195.263,11467.8c-651.087,-876.496 -363.75,-2232.092 151.796,-2463.033c268.146,-120.121 487.063,113.725 747.675,-49.046c288.746,-180.342 162.742,-556.538 404.775,-1223.683c125.054,-344.7 351.829,-969.771 790.992,-1081.075c435.517,-110.375 645.696,394.562 1120.846,301.708c449.288,-87.8 432.112,-572.638 1028.133,-833.979c55.442,-24.308 682.567,-290.283 1030.254,-1.463c353.238,293.425 293.288,1055.846 -53.754,1441.854c-315.296,350.696 -774.9,287.629 -822.575,535.621c-52.533,273.287 488.392,439.396 461.379,725.321c-39.042,413.287 -1197.7,367.733 -1409.404,975.25c-124.487,357.242 220.35,533.133 162.508,1014.471c-74.65,621.238 -740.708,1090.979 -1250.733,1271.7c-739.137,261.904 -1797.554,146.062 -2361.892,-613.646Z"/></clipPath><g clip-path="url(#_clip1)"><path d="M8450.404,12173.379l-29.458,-18.167c703.35,-1140.633 1430.279,-2176.217 2160.617,-3077.988c584.404,-721.575 1172.296,-1359.608 1747.35,-1896.367c979.958,-914.696 1591.712,-1222.204 1597.779,-1225.208l15.342,31.021c-6.029,2.988 -614.579,309.167 -1591.337,1221.196c-901.575,841.833 -2310.092,2386.65 -3900.292,4965.513Z" style="fill:#fff;fill-rule:nonzero;"/><path d="M12238.054,7271.871c131.096,-1064.6 716.858,-1783.683 722.763,-1790.821l26.675,22.05c-5.846,7.062 -585.275,718.842 -715.083,1773.004l-34.354,-4.233Z" style="fill:#fff;fill-rule:nonzero;"/><path d="M10474.263,9204.388c-225.1,-1146.608 -163.25,-1890.829 -71.721,-2313.246c99.7,-460.108 251.442,-645.479 257.85,-653.146l26.567,22.188c-1.529,1.833 -153.783,188.721 -251.404,642.062c-90.192,418.887 -150.796,1157.163 72.675,2295.475l-33.967,6.667Z" style="fill:#fff;fill-rule:nonzero;"/><path d="M9040.454,11201.317c-833.992,-1864.821 -523.75,-3028.688 -520.525,-3040.221l33.325,9.333c-0.808,2.896 -80.321,304.829 -50.263,840.379c26.479,471.583 146.696,1231.971 569.046,2176.379l-31.583,14.129Z" style="fill:#fff;fill-rule:nonzero;"/><path d="M11062.054,9036.342c-118.75,-15.929 -238.621,-38.583 -358.883,-69.146l8.525,-33.542c785.804,199.692 1559.054,58.8 2069.325,-94.575c553.158,-166.271 924.55,-382.329 928.225,-384.496l17.525,29.854c-3.725,2.183 -378.688,220.337 -935.779,387.792c-436.496,131.192 -1064.083,253.3 -1728.938,164.112Z" style="fill:#fff;fill-rule:nonzero;"/><path d="M9501.646,10871.179c-64.117,-8.6 -128.783,-19.567 -194.054,-33.129l7.046,-33.883c827.617,171.954 1568.808,-76.858 2044.892,-315.854c516.242,-259.158 840.2,-562.529 843.417,-565.563l23.767,25.163c-3.25,3.067 -330.917,309.917 -851.658,571.333c-443.504,222.642 -1115.029,453.671 -1873.408,351.933Z" style="fill:#fff;fill-rule:nonzero;"/></g></g></g></g><g><g><path id="SVGID_00000178184684879130907430000004703389636304725420_" d="M5414.417,10119.108c-1079.754,162.167 -2140.762,-729.158 -2102.004,-1292.729c20.158,-293.129 329.5,-376.288 308.479,-682.838c-23.292,-339.637 -414.533,-405.438 -889.363,-932.887c-245.333,-272.521 -690.217,-766.708 -581.821,-1206.596c107.5,-436.233 651.946,-384.142 793.554,-847.108c133.9,-437.763 -302.008,-650.713 -252.208,-1299.604c4.633,-60.358 64.975,-738.879 483.417,-909.8c425.113,-173.654 1069.679,237.942 1247.025,725.783c161.121,443.217 -110.763,819.104 85.642,977.85c216.438,174.933 617.504,-224.242 857.1,-65.888c346.321,228.892 -238.992,1229.879 197.492,1702.508c256.667,277.921 574.113,56.383 971.638,333.879c513.067,358.146 614.217,1166.883 533.737,1701.963c-116.633,775.442 -716.804,1654.904 -1652.688,1795.467Z" style="fill:#4f9cf9;fill-opacity:0.54;fill-rule:nonzero;"/><g><clipPath id="_clip2"><path d="M5414.417,10119.108c-1079.754,162.167 -2140.762,-729.158 -2102.004,-1292.729c20.158,-293.129 329.5,-376.288 308.479,-682.838c-23.292,-339.637 -414.533,-405.438 -889.363,-932.887c-245.333,-272.521 -690.217,-766.708 -581.821,-1206.596c107.5,-436.233 651.946,-384.142 793.554,-847.108c133.9,-437.763 -302.008,-650.713 -252.208,-1299.604c4.633,-60.358 64.975,-738.879 483.417,-909.8c425.113,-173.654 1069.679,237.942 1247.025,725.783c161.121,443.217 -110.763,819.104 85.642,977.85c216.438,174.933 617.504,-224.242 857.1,-65.888c346.321,228.892 -238.992,1229.879 197.492,1702.508c256.667,277.921 574.113,56.383 971.638,333.879c513.067,358.146 614.217,1166.883 533.737,1701.963c-116.633,775.442 -716.804,1654.904 -1652.688,1795.467Z"/></clipPath><g clip-path="url(#_clip2)"><path d="M6157.062,10225.921l-29.887,17.446c-675.608,-1157.283 -1247.421,-2285.946 -1699.558,-3354.663c-361.783,-855.167 -648.208,-1674.108 -851.304,-2434.075c-346.1,-1295.071 -329.637,-1979.567 -329.433,-1986.329l34.592,1.054c-0.196,6.725 -16.329,687.767 328.925,1978.758c318.679,1191.621 1019.183,3161.313 2546.667,5777.808Z" style="fill:#fff;fill-rule:nonzero;"/><path d="M3613.875,4577.621c-877.742,-616.546 -1236.688,-1471.737 -1240.213,-1480.308l32.004,-13.162c3.483,8.483 358.962,854.65 1228.1,1465.146l-19.892,28.325Z" style="fill:#fff;fill-rule:nonzero;"/><path d="M4489.346,7043.213c-1117.688,-340.817 -1745.304,-745.525 -2074.988,-1025.025c-359.1,-304.442 -451.283,-525.554 -455.033,-534.813l32.075,-13.004c0.9,2.212 94.179,224.492 448.287,523.917c327.2,276.662 950.154,677.479 2059.754,1015.825l-10.096,33.1Z" style="fill:#fff;fill-rule:nonzero;"/><path d="M5576.904,9247.921c-2037.917,-141.417 -2918.971,-962.742 -2927.629,-971.017l23.917,-25.017c2.175,2.079 231.196,214.292 717.917,439.725c428.592,198.5 1156.129,450.163 2188.192,521.787l-2.396,34.521Z" style="fill:#fff;fill-rule:nonzero;"/><path d="M4617.6,6445.471c-69.925,97.292 -146.308,192.408 -229.863,284.154l-25.588,-23.304c545.908,-599.458 785.375,-1348.071 890.104,-1870.5c113.529,-566.342 97.6,-995.712 97.417,-999.975l34.587,-1.421c0.171,4.312 16.267,437.825 -98.067,1008.192c-89.587,446.9 -277.1,1058.142 -668.592,1602.854Z" style="fill:#fff;fill-rule:nonzero;"/><path d="M5502.562,8685.642c-37.754,52.529 -77.858,104.438 -120.533,155.65l-26.583,-22.158c541.104,-649.404 670.258,-1420.5 683.35,-1953.046c14.192,-577.467 -101.096,-1006.062 -102.258,-1010.325l33.387,-9.133c1.175,4.312 117.792,437.812 103.475,1020.312c-12.2,496.104 -124.267,1197.358 -570.837,1818.7Z" style="fill:#fff;fill-rule:nonzero;"/></g></g></g></g><g><g><path d="M13430.333,12618.613l-10935.225,-94.521l0,279.675c0,75.913 47.696,140.454 112.292,151.958l3092.154,550.733c36.696,6.537 73.913,8.271 110.942,5.167l7501.004,-627.921c66.967,-5.604 118.833,-70.354 118.833,-148.346l0,-116.746Z" style="fill:#4f9cf9;fill-rule:nonzero;"/><g><path d="M9406.154,12170.421l-6950.217,511.633c-124.367,9.154 -225.492,-88.129 -225.492,-217.313l0,-5175.629c0,-129.183 101.121,-233.908 225.492,-233.908l245.879,141.717l6704.338,-141.717c102.462,0 185.304,94.667 185.304,211.45l0,4678.675c0.004,116.779 -82.842,217.55 -185.304,225.092Z" style="fill:#4f9cf9;fill-rule:nonzero;"/><path d="M9516.975,12170.421l-6950.212,511.633c-124.371,9.154 -225.492,-88.129 -225.492,-217.313l0,-5175.629c0,-129.183 101.121,-233.908 225.492,-233.908l6950.217,0c102.467,0 185.304,94.667 185.304,211.45l0,4678.675c0,116.779 -82.842,217.55 -185.308,225.092Z" style="fill:#fff;fill-rule:nonzero;"/><path d="M9300.458,11840.567l-6473.4,444.421c-101.208,6.946 -183.458,-72.9 -183.458,-178.362l0,-4531.267c0,-105.462 82.246,-191.312 183.458,-191.75l6473.4,-27.908c84.521,-0.367 152.892,77.208 152.892,173.267l0,4127.175c0,96.058 -68.367,178.625 -152.892,184.425Z" style="fill:#4f9cf9;fill-rule:nonzero;"/><g><path d="M5122.95,7808.867l-1747.017,4.55l-0.258,-166.567l1747.025,0.567l0.25,161.45Z" style="fill:#fff;fill-rule:nonzero;"/><path d="M5945.608,7760.642l-403.579,0.708l-0.175,-113.796l403.579,0.129l0.175,112.958Z" style="fill:#fff;fill-rule:nonzero;"/><path d="M5945.85,7917.588l-403.575,1.879l-0.175,-113.8l403.575,-1.037l0.175,112.958Z" style="fill:#fff;fill-rule:nonzero;"/><path d="M7957.038,7908.242l-1565.696,7.275l-0.171,-112.029l1565.7,-4.021l0.167,108.775Z" style="fill:#fff;fill-rule:nonzero;"/><path d="M8214.013,8057.438l-1550.121,11.687l-0.171,-111.467l1550.125,-8.462l0.167,108.242Z" style="fill:#fff;fill-rule:nonzero;"/><path d="M8214.246,8207.829l-1550.113,16.167l-0.171,-111.467l1550.117,-12.942l0.167,108.242Z" style="fill:#fff;fill-rule:nonzero;"/><path d="M8214.479,8358.217l-1550.108,20.65l-0.171,-111.467l1550.113,-17.425l0.167,108.242Z" style="fill:#fff;fill-rule:nonzero;"/><path d="M5946.092,8074.538l-403.571,3.042l-0.179,-113.8l403.575,-2.204l0.175,112.962Z" style="fill:#fff;fill-rule:nonzero;"/><path d="M5946.333,8231.483l-403.571,4.208l-0.175,-113.8l403.571,-3.371l0.175,112.962Z" style="fill:#fff;fill-rule:nonzero;"/><path d="M5946.579,8388.429l-403.571,5.375l-0.175,-113.8l403.571,-4.538l0.175,112.962Z" style="fill:#fff;fill-rule:nonzero;"/><path d="M5946.821,8545.375l-403.567,6.542l-0.175,-113.8l403.567,-5.704l0.175,112.962Z" style="fill:#fff;fill-rule:nonzero;"/><path d="M7028.25,8527.842l-993.362,16.104l-0.175,-112.775l993.367,-14.037l0.171,110.708Z" style="fill:#fff;fill-rule:nonzero;"/><path d="M5947.063,8702.321l-403.567,7.708l-0.175,-113.8l403.567,-6.867l0.175,112.958Z" style="fill:#fff;fill-rule:nonzero;"/><path d="M5947.304,8859.267l-403.562,8.875l-0.175,-113.8l403.562,-8.033l0.175,112.958Z" style="fill:#fff;fill-rule:nonzero;"/><path d="M5947.546,9016.213l-403.558,10.046l-0.179,-113.8l403.567,-9.204l0.171,112.958Z" style="fill:#fff;fill-rule:nonzero;"/><path d="M7493.896,8672.771l-1101.35,21.038l-0.175,-112.033l1101.354,-18.746l0.171,109.742Z" style="fill:#fff;fill-rule:nonzero;"/><path d="M8066.3,8812.658l-1401.208,30.821l-0.175,-111.467l1401.217,-27.904l0.167,108.55Z" style="fill:#fff;fill-rule:nonzero;"/><path d="M8066.533,8963.479l-1401.204,34.871l-0.171,-111.467l1401.208,-31.954l0.167,108.55Z" style="fill:#fff;fill-rule:nonzero;"/><path d="M5947.792,9173.158l-403.562,11.208l-0.175,-113.796l403.562,-10.371l0.175,112.958Z" style="fill:#fff;fill-rule:nonzero;"/><path d="M5948.033,9330.104l-403.558,12.379l-0.175,-113.8l403.558,-11.538l0.175,112.958Z" style="fill:#fff;fill-rule:nonzero;"/><path d="M5948.275,9487.05l-403.554,13.546l-0.179,-113.8l403.558,-12.704l0.175,112.958Z" style="fill:#fff;fill-rule:nonzero;"/><path d="M5948.517,9643.996l-403.554,14.712l-0.175,-113.8l403.558,-13.871l0.171,112.958Z" style="fill:#fff;fill-rule:nonzero;"/><path d="M5948.763,9800.942l-403.554,15.879l-0.175,-113.8l403.554,-15.038l0.175,112.958Z" style="fill:#fff;fill-rule:nonzero;"/><path d="M5949.004,9957.892l-403.554,17.042l-0.175,-113.8l403.554,-16.204l0.175,112.962Z" style="fill:#fff;fill-rule:nonzero;"/><path d="M5949.246,10114.838l-403.55,18.208l-0.175,-113.8l403.55,-17.371l0.175,112.963Z" style="fill:#fff;fill-rule:nonzero;"/><path d="M5949.488,10271.783l-403.546,19.375l-0.175,-113.8l403.546,-18.537l0.175,112.962Z" style="fill:#fff;fill-rule:nonzero;"/><path d="M5949.729,10428.729l-403.546,20.542l-0.175,-113.8l403.55,-19.704l0.171,112.962Z" style="fill:#fff;fill-rule:nonzero;"/><path d="M5949.975,10585.675l-403.546,21.708l-0.175,-113.8l403.546,-20.871l0.175,112.962Z" style="fill:#fff;fill-rule:nonzero;"/><path d="M5950.217,10742.621l-403.542,22.875l-0.175,-113.796l403.542,-22.042l0.175,112.962Z" style="fill:#fff;fill-rule:nonzero;"/><path d="M5950.458,10899.567l-403.542,24.046l-0.175,-113.8l403.542,-23.204l0.175,112.958Z" style="fill:#fff;fill-rule:nonzero;"/><path d="M5950.7,11056.513l-403.537,25.212l-0.175,-113.8l403.538,-24.371l0.175,112.958Z" style="fill:#fff;fill-rule:nonzero;"/><path d="M5950.942,11213.458l-403.533,26.379l-0.179,-113.8l403.542,-25.538l0.171,112.958Z" style="fill:#fff;fill-rule:nonzero;"/><path d="M5951.188,11370.404l-403.538,27.546l-0.175,-113.8l403.537,-26.704l0.175,112.958Z" style="fill:#fff;fill-rule:nonzero;"/><path d="M5951.429,11527.35l-403.533,28.712l-0.175,-113.8l403.533,-27.871l0.175,112.958Z" style="fill:#fff;fill-rule:nonzero;"/><path d="M5951.671,11684.296l-403.529,29.879l-0.179,-113.8l403.533,-29.038l0.175,112.958Z" style="fill:#fff;fill-rule:nonzero;"/><path d="M5951.913,11841.242l-403.529,31.046l-0.175,-113.8l403.529,-30.204l0.175,112.958Z" style="fill:#fff;fill-rule:nonzero;"/><path d="M7131.596,7758.558l-1100.663,1.933l-0.175,-112.779l1100.667,0.354l0.171,110.492Z" style="fill:#fff;fill-rule:nonzero;"/><path d="M7961.713,10930.875l-1565.558,97.808l-0.175,-112.033l1565.562,-94.55l0.171,108.775Z" style="fill:#fff;fill-rule:nonzero;"/><path d="M8218.663,11065.225l-1549.983,101.317l-0.171,-111.467l1549.988,-98.092l0.167,108.242Z" style="fill:#fff;fill-rule:nonzero;"/><path d="M8218.896,11215.612l-1549.975,105.8l-0.171,-111.467l1549.979,-102.571l0.167,108.237Z" style="fill:#fff;fill-rule:nonzero;"/><path d="M8887.05,11318.479l-1509.837,107.425l-0.171,-109.992l1509.842,-104.283l0.167,106.85Z" style="fill:#fff;fill-rule:nonzero;"/><path d="M8887.279,11466.938l-1509.829,111.792l-0.171,-109.992l1509.833,-108.65l0.167,106.85Z" style="fill:#fff;fill-rule:nonzero;"/><path d="M8887.508,11615.396l-1509.825,116.158l-0.167,-109.996l1509.825,-113.013l0.167,106.85Z" style="fill:#fff;fill-rule:nonzero;"/><path d="M7136.342,10828.908l-1100.562,65.575l-0.175,-112.783l1100.567,-63.283l0.171,110.492Z" style="fill:#fff;fill-rule:nonzero;"/><path d="M7959.142,9268.425l-1565.633,48.017l-0.175,-112.033l1565.637,-44.758l0.171,108.775Z" style="fill:#fff;fill-rule:nonzero;"/><path d="M8216.104,9410.942l-1550.058,52.021l-0.171,-111.467l1550.062,-48.796l0.167,108.242Z" style="fill:#fff;fill-rule:nonzero;"/><path d="M8216.338,9561.329l-1550.05,56.504l-0.171,-111.467l1550.054,-53.275l0.167,108.237Z" style="fill:#fff;fill-rule:nonzero;"/><path d="M8216.571,9711.721l-1550.046,60.983l-0.171,-111.467l1550.05,-57.758l0.167,108.242Z" style="fill:#fff;fill-rule:nonzero;"/><path d="M7030.387,9912.217l-993.321,41.954l-0.175,-112.775l993.325,-39.887l0.171,110.708Z" style="fill:#fff;fill-rule:nonzero;"/><path d="M7496.017,10045.038l-1101.308,49.696l-0.171,-112.033l1101.308,-47.404l0.171,109.742Z" style="fill:#fff;fill-rule:nonzero;"/><path d="M8068.396,10170.038l-1401.15,67.279l-0.175,-111.467l1401.158,-64.363l0.167,108.55Z" style="fill:#fff;fill-rule:nonzero;"/><path d="M8068.629,10320.858l-1401.146,71.329l-0.171,-111.467l1401.15,-68.413l0.167,108.55Z" style="fill:#fff;fill-rule:nonzero;"/><path d="M8379.479,10454.962l-1384.279,74.479l-0.171,-110.787l1384.283,-71.592l0.167,107.9Z" style="fill:#fff;fill-rule:nonzero;"/><path d="M8379.713,10604.887l-1384.275,78.475l-0.171,-110.783l1384.279,-75.596l0.167,107.904Z" style="fill:#fff;fill-rule:nonzero;"/><path d="M7133.729,9140.217l-1100.617,30.571l-0.175,-112.779l1100.621,-28.283l0.171,110.492Z" style="fill:#fff;fill-rule:nonzero;"/><path d="M5123.338,8061.129l-999.946,7.183l-0.254,-164.379l999.954,-4.254l0.246,161.45Z" style="fill:#fff;fill-rule:nonzero;"/><path d="M3864.754,8070.171l188.337,-1.354l-0.258,-164.583l-188.333,0.8l0.254,165.137Z" style="fill:#fff;fill-rule:nonzero;"/><path d="M5123.7,8293.213l-999.946,11.396l-0.254,-164.379l999.95,-8.467l0.25,161.45Z" style="fill:#fff;fill-rule:nonzero;"/><path d="M3865.121,8307.554l188.333,-2.146l-0.254,-164.583l-188.333,1.592l0.254,165.137Z" style="fill:#fff;fill-rule:nonzero;"/><path d="M5124.058,8525.296l-999.938,15.604l-0.254,-164.379l999.942,-12.675l0.25,161.45Z" style="fill:#fff;fill-rule:nonzero;"/><path d="M3865.488,8544.938l188.333,-2.938l-0.254,-164.587l-188.333,2.388l0.254,165.137Z" style="fill:#fff;fill-rule:nonzero;"/><path d="M5126.604,10172.679l-1746.904,79.487l-0.254,-166.567l1746.908,-74.371l0.25,161.45Z" style="fill:#fff;fill-rule:nonzero;"/><path d="M5126.992,10424.946l-999.883,50.071l-0.254,-164.379l999.887,-47.142l0.25,161.45Z" style="fill:#fff;fill-rule:nonzero;"/><path d="M3868.492,10487.971l188.321,-9.433l-0.254,-164.583l-188.321,8.879l0.254,165.137Z" style="fill:#fff;fill-rule:nonzero;"/><path d="M5127.35,10657.025l-999.875,54.288l-0.254,-164.379l999.883,-51.354l0.246,161.446Z" style="fill:#fff;fill-rule:nonzero;"/><path d="M3868.858,10725.354l188.321,-10.225l-0.254,-164.583l-188.321,9.671l0.254,165.137Z" style="fill:#fff;fill-rule:nonzero;"/><path d="M5127.713,10889.108l-999.871,58.5l-0.254,-164.379l999.875,-55.571l0.25,161.45Z" style="fill:#fff;fill-rule:nonzero;"/><path d="M3869.225,10962.737l188.321,-11.017l-0.254,-164.588l-188.321,10.467l0.254,165.137Z" style="fill:#fff;fill-rule:nonzero;"/><path d="M5124.417,8758.95l-1746.971,34.671l-0.254,-166.567l1746.975,-29.55l0.25,161.446Z" style="fill:#fff;fill-rule:nonzero;"/><path d="M5124.808,9011.217l-999.925,24.421l-0.254,-164.379l999.929,-21.492l0.25,161.45Z" style="fill:#fff;fill-rule:nonzero;"/><path d="M3866.258,9041.954l188.329,-4.6l-0.254,-164.583l-188.333,4.046l0.258,165.137Z" style="fill:#fff;fill-rule:nonzero;"/><path d="M5125.167,9243.3l-999.917,28.633l-0.254,-164.379l999.921,-25.704l0.25,161.45Z" style="fill:#fff;fill-rule:nonzero;"/><path d="M3866.625,9279.338l188.325,-5.392l-0.254,-164.583l-188.329,4.838l0.258,165.138Z" style="fill:#fff;fill-rule:nonzero;"/><path d="M5125.887,9710.479l-999.9,37.108l-0.254,-164.375l999.904,-34.183l0.25,161.45Z" style="fill:#fff;fill-rule:nonzero;"/><path d="M3867.363,9757.188l188.325,-6.988l-0.254,-164.587l-188.325,6.438l0.254,165.137Z" style="fill:#fff;fill-rule:nonzero;"/><path d="M5126.246,9942.563l-999.896,41.321l-0.254,-164.379l999.904,-38.392l0.246,161.45Z" style="fill:#fff;fill-rule:nonzero;"/><path d="M3867.729,9994.571l188.325,-7.783l-0.254,-164.583l-188.325,7.229l0.254,165.138Z" style="fill:#fff;fill-rule:nonzero;"/><path d="M5125.525,9475.383l-999.908,32.842l-0.254,-164.379l999.913,-29.913l0.25,161.45Z" style="fill:#fff;fill-rule:nonzero;"/><path d="M3866.992,9516.721l188.325,-6.183l-0.254,-164.588l-188.329,5.638l0.258,165.133Z" style="fill:#fff;fill-rule:nonzero;"/><path d="M5128.067,11121.113l-1746.854,109.558l-0.254,-166.571l1746.862,-104.433l0.246,161.446Z" style="fill:#fff;fill-rule:nonzero;"/><path d="M5128.458,11373.379l-999.854,67.283l-0.254,-164.379l999.858,-64.354l0.25,161.45Z" style="fill:#fff;fill-rule:nonzero;"/><path d="M3869.992,11458.067l188.317,-12.675l-0.254,-164.583l-188.317,12.121l0.254,165.138Z" style="fill:#fff;fill-rule:nonzero;"/><path d="M5128.817,11605.463l-999.85,71.496l-0.254,-164.379l999.854,-68.567l0.25,161.45Z" style="fill:#fff;fill-rule:nonzero;"/><path d="M3870.358,11695.45l188.317,-13.467l-0.254,-164.583l-188.317,12.913l0.254,165.137Z" style="fill:#fff;fill-rule:nonzero;"/><path d="M5129.175,11837.546l-999.842,75.704l-0.254,-164.379l999.846,-72.775l0.25,161.45Z" style="fill:#fff;fill-rule:nonzero;"/><path d="M3870.725,11932.833l188.312,-14.258l-0.254,-164.587l-188.312,13.708l0.254,165.138Z" style="fill:#fff;fill-rule:nonzero;"/><path d="M5341.454,11822.275l-38.475,2.913l-6.458,-4177.713l38.479,0.012l6.454,4174.788Z" style="fill:#fff;fill-rule:nonzero;"/></g><path d="M6287.329,7196.771c0,48.092 -35.771,87.188 -79.946,87.329c-44.229,0.142 -80.121,-38.817 -80.121,-87.017c0,-48.2 35.892,-87.3 80.121,-87.333c44.175,-0.033 79.946,38.925 79.946,87.021Z" style="fill:#fff;fill-rule:nonzero;"/><path d="M2566.733,12682.058l6915.054,-509.046l35.188,-2.592c47.013,-3.462 89.758,-26.7 122.408,-61.954c-497.613,-27.233 -806.692,-203.821 -1006.071,-386.288c-400.392,-366.438 -330.942,-727.796 -762.721,-968.721c-538.542,-300.504 -961.996,80.271 -1370.663,-295.421c-247.754,-227.775 -126.117,-397.621 -430.979,-737.996c-337.658,-376.996 -557.492,-250.271 -896.833,-589.567c-429.067,-429.021 -214.475,-762.808 -584.067,-1070.829c-448.367,-373.679 -931.908,-27.817 -1358.721,-386.183c-184.088,-154.562 -285.1,-379.275 -337.842,-618.254l-324.733,0c-124.371,0 -225.496,104.729 -225.496,233.912l0,5175.629c0.008,129.167 101.112,226.442 225.475,217.308Z" style="fill:#4f9cf9;fill-opacity:0.48;fill-rule:nonzero;"/></g><path d="M9844.442,12142.042l-7349.333,538.542l3204.446,570.729c36.696,6.533 73.913,8.271 110.942,5.171l7619.838,-637.871l-3468.988,-472.912c-38.792,-5.288 -77.921,-6.513 -116.904,-3.658Z" style="fill:url(#_Linear3);fill-rule:nonzero;"/><path d="M3567.492,12685.217l6118.538,-455.033l1893.633,256.071l-6065.829,486.413l-1946.342,-287.45Z" style="fill:#4f9cf9;fill-rule:nonzero;"/></g></g><g><path d="M10568.621,3995.279l-6328.104,-207.95c-212.2,-6.975 -384.95,160.421 -384.95,373.917l0,6167.675c0,213.496 172.746,379.192 384.95,370.133l6328.108,-270.213c183.033,-7.817 330.837,-173.925 330.837,-371.05l0,-5694.712c0,-197.125 -147.804,-361.783 -330.842,-367.8Z" style="fill:#91b3fa;fill-rule:nonzero;"/><path d="M4240.517,10576.138c-144.337,5.971 -261.683,-106.829 -261.683,-251.962l0,-6159.392c0,-145.129 117.342,-259.083 261.679,-254.533l6328.108,199.446c124.679,3.929 225.483,116.017 225.483,250.367l0,5701.783c0,134.35 -100.804,247.429 -225.479,252.583l-6328.108,261.708Z" style="fill:#fff;fill-opacity:0.74;fill-rule:nonzero;"/><path d="M10568.621,3995.279l-6328.108,-207.95c-212.2,-6.975 -384.95,160.421 -384.95,373.921l0,277.304l7043.9,180.562l0,-256.038c0.004,-197.129 -147.8,-361.783 -330.842,-367.8Z" style="fill:#4042e2;fill-rule:nonzero;"/><path d="M4540.008,4143.688c0,69.354 -55.838,124.029 -124.812,122.121c-69.079,-1.912 -125.154,-59.842 -125.154,-129.383c0,-69.546 56.075,-124.213 125.154,-122.113c68.975,2.1 124.812,60.025 124.812,129.375Z" style="fill:#fff;fill-rule:nonzero;"/><path d="M4975.679,4156.35c0,69.021 -55.304,123.446 -123.621,121.554c-68.417,-1.892 -123.958,-59.537 -123.958,-128.75c0,-69.208 55.542,-123.625 123.958,-121.546c68.317,2.083 123.621,59.721 123.621,128.742Z" style="fill:#fff;fill-rule:nonzero;"/><path d="M5407.204,4168.892c0,68.696 -54.779,122.867 -122.446,120.992c-67.767,-1.875 -122.779,-59.238 -122.779,-128.117c0,-68.879 55.012,-123.046 122.779,-120.983c67.667,2.058 122.446,59.413 122.446,128.108Z" style="fill:#fff;fill-rule:nonzero;"/><g><path d="M7646.738,5210.262l-3342.463,-60.075l0,196.525l3342.463,52.892l0,-189.342Z" style="fill:#fff;fill-rule:nonzero;"/><path d="M10159.683,5255.433l0,183.938l353.625,5.596l0,-183.179l-353.625,-6.354Z" style="fill:#fff;fill-rule:nonzero;"/></g><g><path d="M5010.917,5827.442l-706.642,-7.525l0,-202.658l706.642,9.092l0,201.092Z" style="fill:#fff;fill-rule:nonzero;"/><path d="M8785.979,5867.637l-3323.942,-35.392l0,-200.092l3323.942,42.762l0,192.721Z" style="fill:#fff;fill-rule:nonzero;"/><path d="M6150.958,6178.763l-688.921,-4.725l0,-200.096l688.921,6.254l0,198.567Z" style="fill:#fff;fill-rule:nonzero;"/><path d="M9833.642,6204.025l-3242.804,-22.246l0,-197.588l3242.804,29.433l0,190.4Z" style="fill:#fff;fill-rule:nonzero;"/><path d="M6150.958,6517.946l-688.921,-2.121l0,-200.092l688.921,3.646l0,198.567Z" style="fill:#fff;fill-rule:nonzero;"/><path d="M9833.642,6529.262l-3242.804,-9.967l0,-197.592l3242.804,17.158l0,190.4Z" style="fill:#fff;fill-rule:nonzero;"/><path d="M5010.917,6857.942l-706.642,0.504l0,-202.663l706.642,1.062l0,201.096Z" style="fill:#fff;fill-rule:nonzero;"/><path d="M8785.979,6855.246l-3323.942,2.371l0,-200.092l3323.942,4.996l0,192.725Z" style="fill:#fff;fill-rule:nonzero;"/><path d="M6150.958,7196.304l-688.921,3.104l0,-200.092l688.921,-1.575l0,198.562Z" style="fill:#fff;fill-rule:nonzero;"/><path d="M9833.642,7179.729l-3242.804,14.596l0,-197.587l3242.804,-7.408l0,190.4Z" style="fill:#fff;fill-rule:nonzero;"/><path d="M6150.958,7535.488l-688.921,5.708l0,-200.092l688.921,-4.183l0,198.567Z" style="fill:#fff;fill-rule:nonzero;"/><path d="M9833.642,7504.963l-3242.804,26.879l0,-197.592l3242.804,-19.688l0,190.4Z" style="fill:#fff;fill-rule:nonzero;"/><path d="M6150.958,7874.671l-688.921,8.317l0,-200.092l688.921,-6.792l0,198.567Z" style="fill:#fff;fill-rule:nonzero;"/><path d="M9833.642,7830.2l-3242.804,39.158l0,-197.592l3242.804,-31.967l0,190.4Z" style="fill:#fff;fill-rule:nonzero;"/><path d="M7273.142,8196.05l-671.7,10.654l0,-197.567l671.7,-9.167l0,196.079Z" style="fill:#fff;fill-rule:nonzero;"/><path d="M10336.863,8147.45l-2634.767,41.796l0,-195.125l2634.767,-35.954l0,189.283Z" style="fill:#fff;fill-rule:nonzero;"/><path d="M5010.917,8575.433l-706.642,13.883l0,-202.658l706.642,-12.317l0,201.092Z" style="fill:#fff;fill-rule:nonzero;"/><path d="M8785.979,8501.254l-3323.942,65.312l0,-200.092l3323.942,-57.946l0,192.725Z" style="fill:#fff;fill-rule:nonzero;"/><path d="M6150.958,8892.212l-688.921,16.146l0,-200.092l688.921,-14.621l0,198.567Z" style="fill:#fff;fill-rule:nonzero;"/><path d="M9833.642,8805.9l-3242.804,76l0,-197.587l3242.804,-68.813l0,190.4Z" style="fill:#fff;fill-rule:nonzero;"/><path d="M6150.958,9231.392l-688.921,18.758l0,-200.096l688.921,-17.225l0,198.563Z" style="fill:#fff;fill-rule:nonzero;"/><path d="M9833.642,9131.133l-3242.804,88.283l0,-197.587l3242.804,-81.096l0,190.4Z" style="fill:#fff;fill-rule:nonzero;"/><path d="M5010.917,9605.929l-706.642,21.913l0,-202.658l706.642,-20.346l0,201.092Z" style="fill:#fff;fill-rule:nonzero;"/><path d="M8785.979,9488.858l-3323.942,103.079l0,-200.092l3323.942,-95.708l0,192.721Z" style="fill:#fff;fill-rule:nonzero;"/><path d="M6150.958,9909.754l-688.921,23.975l0,-200.092l688.921,-22.446l0,198.562Z" style="fill:#fff;fill-rule:nonzero;"/><path d="M9833.642,9781.604l-3242.804,112.842l0,-197.587l3242.804,-105.654l0,190.4Z" style="fill:#fff;fill-rule:nonzero;"/></g><g opacity="0.5"><path d="M8108.846,6366.317c-739.112,-1075.487 -2018.429,-733.304 -2827.729,-1921.6c-145.954,-214.304 -244.988,-432.363 -312.917,-633.471l-727.683,-23.912c-212.204,-6.971 -384.95,160.425 -384.95,373.921l0,6167.671c0,213.496 172.746,379.192 384.95,370.133l6096.346,-260.317c-139.658,-201.417 -1356.033,-947.475 -1670.258,-2092.946c-287.363,-1047.554 -111.829,-1330.608 -557.758,-1979.479Z" style="fill:#4f9cf9;fill-opacity:0.24;fill-rule:nonzero;"/></g></g><g><path d="M6374.221,7789.2c115.529,-123.346 -204.296,-586.746 -375.479,-789.796c-149.546,-177.392 -303.254,-359.721 -492.004,-336.633c-165.721,20.267 -326.975,195.033 -336.633,362.529c-25.992,450.596 1039.879,939.258 1204.117,763.9Z" style="fill:#fbc343;fill-rule:nonzero;"/><path d="M4987.092,12551.033c-21.746,17.675 -25.746,61.821 -28.358,90.679c-1.175,12.892 -1.754,19.337 -0.317,23.888c10.508,33.208 74.917,36.704 175.913,47.025c159.608,16.308 207.104,28.867 219.596,5.117c11.708,-22.258 -16.621,-58.704 -19.812,-62.721c-17.15,-21.604 -38.2,-29.462 -78.896,-42.854c-75.3,-24.788 -126.179,-38.358 -141.583,-42.467c-96.188,-25.683 -112.258,-30.275 -126.542,-18.667Z" style="fill:#4042e2;fill-rule:nonzero;"/><path d="M5082.013,12405.221l15.971,181.879c-4.533,8.783 -58.596,35.129 -101.537,12.538l-41.037,-178.779l126.604,-15.637Z" style="fill:#ffc444;fill-rule:nonzero;"/><path d="M6252.888,12527.658c-26.063,28.783 -32,81.787 -9.342,107.9c22.279,25.671 55.779,6.417 150.788,9.254c101.771,3.042 128.346,27.079 197.504,7.996c27.937,-7.725 77.283,-26.454 76.35,-46.408c-0.658,-14.029 -25.779,-21.275 -109.688,-49.388c-119.104,-39.896 -118.579,-42.075 -143.871,-46.267c-63.529,-10.525 -127.317,-21.092 -161.742,16.913Z" style="fill:#4042e2;fill-rule:nonzero;"/><path d="M6318.096,12361.671l51.046,169.792c-3.858,9.108 -55.75,39.492 -100.283,20.246l-75.808,-164.8l125.046,-25.237Z" style="fill:url(#_Linear4);fill-rule:nonzero;"/><path d="M5864.558,8642.95c7.313,570.633 46.25,1212.242 139.688,1909.312c92.342,688.946 221.75,1311.442 362.913,1858.838c-65.125,17.521 -130.25,35.042 -195.375,52.567c-165.229,-154.062 -373.658,-396.587 -474.233,-739.312c-62.421,-212.717 -41.617,-322.021 -81.212,-583.658c-63.042,-416.583 -190.742,-634.833 -322.725,-970.767c-118.604,-301.867 -258.796,-744.888 -333.967,-1337.067c301.642,-63.3 603.279,-126.613 904.913,-189.913Z" style="fill:#4042e2;fill-rule:nonzero;"/><path d="M5276.688,8588.5c-39.863,725.75 -72.646,1465.004 -97.487,2217.358c-18.646,564.562 -32.337,1121.967 -41.438,1672.033c-66.521,8.212 -133.05,16.429 -199.579,24.637c-64.279,-119.679 -149.658,-302.654 -208.146,-537.175c-71.037,-284.829 -54.588,-453.979 -85.742,-749.179c-34.954,-331.096 -85.725,-403.229 -175.663,-820.9c-182.546,-847.65 -273.821,-1271.479 -70.188,-1535.121c66.104,-85.592 273.329,-300.292 878.242,-271.654Z" style="fill:#4042e2;fill-rule:nonzero;"/><path d="M4307.146,6764.492c155.796,-43.808 384.121,-95.046 663.75,-110.85c398.825,-22.542 598.242,-33.812 739.55,61.163c326.375,219.358 73.696,725.642 207.292,1980.667c19.079,179.225 23.358,359.729 37.175,539.438c22.879,297.546 28.088,313.7 7.383,343.854c-129.829,189.071 -614.204,-96.113 -1324.154,16.617c-397.233,63.075 -577.392,208.392 -686.217,103.579c-126.917,-122.229 -18.05,-450.992 75.662,-734.004c107.571,-324.858 174.021,-329.038 235.079,-573.696c63.821,-255.717 25.217,-387.383 15.279,-790.633c-4.754,-192.95 -3.746,-480.1 29.2,-836.133Z" style="fill:#fbc343;fill-rule:nonzero;"/><g><path d="M5272.571,9120.638c-185.558,-14.521 -305.938,90.388 -466.112,8.633c-219.642,-112.108 -290.213,-460.921 -276.217,-707.796c21.267,-375.096 235.45,-473.967 198.529,-716.429c-19.967,-131.121 -113.583,-305.204 -449.7,-483.058c-4.483,149.687 -3.629,277.279 -1.133,378.642c9.938,403.25 48.542,534.917 -15.279,790.633c-61.058,244.654 -127.508,248.837 -235.079,573.696c-93.712,283.012 -202.575,611.775 -75.662,734.004c108.829,104.813 288.987,-40.504 686.217,-103.579c611.733,-97.133 1055.742,100.908 1250.008,36.679c-234.738,-387.921 -447.658,-498.288 -615.571,-511.425Z" style="fill:#e49b31;fill-rule:nonzero;"/></g><path d="M4560.254,6790.242c-132.521,-108.892 -398.996,14.371 -470.225,47.317c-397.225,183.742 -753.875,678.867 -665.508,1202.117c13.25,78.479 74.708,445.529 385.517,623.379c280.446,160.475 659.129,119.204 962.533,-108.083c41.458,-36.796 82.933,-73.579 124.4,-110.375c40.792,-44.092 81.592,-88.188 122.383,-132.283c-64.125,-53.337 -173.079,-130.283 -326.096,-179.663c-201.742,-65.1 -348.617,51.713 -442.221,-37.096c-64.6,-61.287 -64.746,-169.538 -48.792,-235.146c32.154,-132.229 148.713,-169.413 246.004,-263.267c228.571,-220.492 270.679,-676.517 112.004,-806.9Z" style="fill:#fbc343;fill-rule:nonzero;"/><g><path d="M6464.754,8498.425l-1776.325,-26.517l472.354,227.962l1308.513,-85.637l-4.542,-115.808Z" style="fill:#4042e2;fill-rule:nonzero;"/><path d="M4625.742,8519.113l0,0.008c0,33.242 20.8,62.933 52.042,74.296l567.596,222.517l2.588,-154.267l-559.533,-189.758c-31.404,-9.025 -62.692,14.542 -62.692,47.204Z" style="fill:#4042e2;fill-rule:nonzero;"/></g><path d="M4899.263,8414.008c-10.9,-2.433 53.108,-129.979 103.367,-115.263c50.242,14.721 296.025,157.163 318.362,215.812l22.342,58.646c0,0 -107.212,8.379 -173.7,-13.958c-66.492,-22.346 -181.721,-125.471 -270.371,-145.237Z" style="fill:url(#_Linear5);fill-rule:nonzero;"/><g><path d="M5000.675,6217.908c0.992,118.238 -12.2,212.008 -24.679,276.225c-14.292,73.579 -24.596,92.583 -37.742,108.008c-19.788,23.217 -49.775,42.692 -219.204,84.708c-92.2,22.854 -104.058,22.233 -106.1,31.383c-9.929,44.633 241.479,196.754 501.221,160.092c158.967,-22.438 303.6,-113.129 294.725,-160.754c-8.938,-47.929 -167.725,-22.212 -215.05,-108.921c-32.925,-60.321 3.983,-145.958 47.604,-216.879c-42.254,-79.171 -198.529,-94.7 -240.775,-173.863Z" style="fill:url(#_Linear6);fill-rule:nonzero;"/><g><path d="M5295.721,6264.654c37.517,-49.837 39.829,-136.842 -3.396,-191.837c-37.2,-47.325 -95.742,-54.071 -130.787,-58.125c-101.558,-11.725 -229.696,30.671 -274.267,124.142c-26.408,55.392 30.721,170.487 39.663,191.179c10.133,23.396 28.496,31.421 45.492,49.113c23.546,24.533 60.413,63.542 120.583,128.783c4.675,-19.25 11.787,-43.083 23.079,-68.913c4.346,-9.946 21.808,-48.775 48.225,-80.975c52.925,-64.554 95.842,-46.138 131.408,-93.367Z" style="fill:#26264f;fill-rule:nonzero;"/><path d="M5007.175,6453.042c0,0 66.762,109.529 199.692,100.883c119.013,-7.75 136.446,-274.646 60.429,-331.279c-25.362,-18.892 -76.154,-26.738 -117.45,-15.167c-24.392,6.838 -32.654,16.971 -72.725,27.363c-36.967,9.596 -47.404,5.496 -58.562,14.879c-13.954,11.75 -24.179,40.546 -0.871,118.567c-22.708,-22.988 -49.962,-31.812 -69.275,-22.696c-3.075,1.463 -11.25,7.017 -15.85,15.442c-16.65,30.483 11.196,69.417 74.613,92.008Z" style="fill:url(#_Linear7);fill-rule:nonzero;"/><path d="M5013.171,6233.754c5.738,4.279 -11.808,25.696 -13.112,56c-2.55,58.829 57.004,129.45 117.75,135.438c35.917,3.537 45.788,-18.108 105.163,-24.383c36.758,-3.883 67.358,0.792 86.608,5c18.658,64.525 1.1,128.854 -42.025,158.7c-46.429,32.133 -105.742,12.642 -130.537,4.487c-16.588,-5.454 -69.746,-22.817 -97.529,-71.562c-28.946,-50.8 -0.538,-81.421 -33.746,-115.775c-16.75,-17.333 -38.754,-24.838 -60.171,-58.387c-5.817,-9.117 -9.696,-17.179 -12.071,-22.604c30.696,-32.542 71.358,-73.108 79.671,-66.913Z" style="fill:#26264f;fill-rule:nonzero;"/><path d="M5201.175,6459.3c0,0 25.704,-13.429 70.121,-10.933c2.158,0.125 4.546,-0.512 4.821,-1.629c1.021,-4.213 -27.475,-23.104 -53.733,-15.729c-18.642,5.246 -33.146,22.892 -30.638,27.387c1.063,1.892 5.279,1.642 9.429,0.904Z" style="fill:#fff;fill-rule:nonzero;"/></g></g><g><g><path d="M5295.087,7579.283l-125.212,1140.038c-4.321,39.337 50.75,97.942 90.279,96.071l1836.813,-112.762c30.183,-1.433 55.317,-23.646 60.425,-53.429l230.546,-1101.079c6.879,-40.067 -65.15,-81.454 -105.792,-80.317l-1924.867,54.125c-32.142,0.913 -58.687,25.383 -62.192,57.354Z" style="fill:#4042e2;fill-rule:nonzero;"/><path d="M5337.067,7612.521l-125.212,1140.05c-4.317,39.337 27.529,73.225 67.058,71.362l1860.046,-88.058c30.179,-1.433 55.308,-23.646 60.421,-53.425l190.033,-1106.113c6.883,-40.079 -24.633,-76.425 -65.275,-75.279l-1924.871,54.125c-32.142,0.892 -58.7,25.375 -62.2,57.338Z" style="fill:#4042e2;fill-rule:nonzero;"/></g><path d="M6429.283,8468.729c-162.413,-68.837 -105.087,-200.104 -296.875,-363.675c-253.012,-215.787 -510.9,-122.204 -601.183,-289.458c-28.113,-52.096 -41.542,-133.15 7.429,-264.338l-139.387,3.921c-32.142,0.896 -58.696,25.379 -62.2,57.342l-125.212,1140.05c-4.312,39.329 27.537,73.225 67.058,71.362l1860.046,-88.058c30.179,-1.433 55.308,-23.642 60.421,-53.425l26.225,-152.633c-56.438,-31.408 -123.875,-59.963 -202.567,-75.929c-272.888,-55.35 -406.771,94.092 -593.754,14.842Z" style="fill:#4042e2;fill-opacity:0.3;fill-rule:nonzero;"/></g><path d="M7256.138,8576.417c3.025,-9.183 -3.388,-18.646 -13.046,-19.137c-39.312,-2.004 -130.487,-2.821 -180.821,28.004c-65.388,40.05 -149.933,113.137 -78.733,150.013l66.483,34.442c3.054,1.583 6.379,2.075 9.729,1.342c23.625,-5.196 123.054,-27.254 133.929,-32.729c9.896,-4.983 47.808,-117.488 62.458,-161.933Z" style="fill:url(#_Linear8);fill-rule:nonzero;"/></g></g></g><defs><linearGradient id="_Linear3" x1="0" y1="0" x2="1" y2="0" gradientUnits="userSpaceOnUse" gradientTransform="matrix(10935.224583,0,0,10935.224583,2495.11,12699.259583)"><stop offset="0" style="stop-color:#ebeff2;stop-opacity:1"/><stop offset="0.49" style="stop-color:#ebeff2;stop-opacity:1"/><stop offset="1" style="stop-color:#fff;stop-opacity:1"/></linearGradient><linearGradient id="_Linear4" x1="0" y1="0" x2="1" y2="0" gradientUnits="userSpaceOnUse" gradientTransform="matrix(-176.091667,0,-0,-176.091667,6369.137917,12459.821667)"><stop offset="0" style="stop-color:#ffc444;stop-opacity:1"/><stop offset="1" style="stop-color:#f36f56;stop-opacity:1"/><stop offset="1" style="stop-color:#f36f56;stop-opacity:1"/></linearGradient><linearGradient id="_Linear5" x1="0" y1="0" x2="1" y2="0" gradientUnits="userSpaceOnUse" gradientTransform="matrix(-445.297083,0,-0,-445.297083,5343.3325,8436.15375)"><stop offset="0" style="stop-color:#ffc444;stop-opacity:1"/><stop offset="1" style="stop-color:#f36f56;stop-opacity:1"/><stop offset="1" style="stop-color:#f36f56;stop-opacity:1"/></linearGradient><linearGradient id="_Linear6" x1="0" y1="0" x2="1" y2="0" gradientUnits="userSpaceOnUse" gradientTransform="matrix(15.781667,1096.889583,-1096.889583,15.781667,5008.027083,6516.39)"><stop offset="0" style="stop-color:#ffc444;stop-opacity:1"/><stop offset="1" style="stop-color:#f36f56;stop-opacity:1"/><stop offset="1" style="stop-color:#f36f56;stop-opacity:1"/></linearGradient><linearGradient id="_Linear7" x1="0" y1="0" x2="1" y2="0" gradientUnits="userSpaceOnUse" gradientTransform="matrix(-60.289583,585.388333,-585.388333,-60.289583,5131.555833,6270.840417)"><stop offset="0" style="stop-color:#ffc444;stop-opacity:1"/><stop offset="1" style="stop-color:#f36f56;stop-opacity:1"/><stop offset="1" style="stop-color:#f36f56;stop-opacity:1"/></linearGradient><linearGradient id="_Linear8" x1="0" y1="0" x2="1" y2="0" gradientUnits="userSpaceOnUse" gradientTransform="matrix(-300.41,0,-0,-300.41,7256.890417,8663.934167)"><stop offset="0" style="stop-color:#ffc444;stop-opacity:1"/><stop offset="1" style="stop-color:#f36f56;stop-opacity:1"/><stop offset="1" style="stop-color:#f36f56;stop-opacity:1"/></linearGradient></defs></svg>